<?xml version="1.0" encoding="UTF-8"?>
<svg id="Capa_2" data-name="Capa 2" xmlns="http://www.w3.org/2000/svg" viewBox="0 0 305.02 305.05">
  <defs>
    <style>
      .cls-1 {
        fill: #fff;
      }

      .cls-2 {
        fill: #232323;
      }
    </style>
  </defs>
  <g id="Capa_2-2" data-name="Capa 2">
    <path class="cls-2" d="M295.18,275.65c-1.76,10.97-10.45,19.53-21.46,21.02-34.16,4.64-72.62,7.91-114.7,8.33-48.72.48-92.83-2.97-131.3-8.14-11.61-1.56-20.63-10.87-21.77-22.53C2.11,234.99-.24,191.7.02,145,.25,103.81,2.48,65.34,5.92,29.99c1.14-11.76,10.27-21.18,22-22.61C63.82,3.03,104.08.09,148.02,0c46.05-.09,88.11,2.97,125.39,7.54,11.16,1.37,20.04,9.96,21.81,21.06,5.62,35.2,9.74,76.39,9.8,122.4.06,46.95-4.11,88.91-9.84,124.65Z"/>
    <polygon class="cls-1" points="266.22 82.67 230.22 82.67 218.22 82.67 182.22 82.67 182.22 94.67 206.22 94.67 206.22 106.67 218.22 106.67 218.22 178.67 206.22 178.67 206.22 166.67 194.22 166.67 194.22 154.67 182.22 154.67 182.22 130.67 170.22 130.67 170.22 118.67 158.22 118.67 158.22 106.67 146.22 106.67 146.22 94.67 134.62 94.67 134.62 82.67 50.62 82.67 50.62 94.67 73.22 94.67 73.22 106.67 86.22 106.67 86.22 214.67 74.22 214.67 74.22 226.67 50.62 226.67 50.62 238.67 134.62 238.67 134.62 226.67 110.22 226.67 110.22 214.67 98.22 214.67 98.22 118.67 110.22 118.67 110.22 130.67 122.22 130.67 122.22 154.67 134.22 154.67 134.22 166.67 146.22 166.67 146.22 178.67 158.22 178.67 158.22 190.67 170.22 190.67 170.22 214.67 182.22 214.67 182.22 226.67 194.22 226.67 194.22 238.67 230.22 238.67 230.22 226.67 230.22 214.67 230.22 190.67 230.22 106.67 242.22 106.67 242.22 94.67 266.22 94.67 266.22 82.67"/>
  </g>
</svg>