<?xml version="1.0" encoding="UTF-8"?>
<svg id="Capa_2" data-name="Capa 2" xmlns="http://www.w3.org/2000/svg" viewBox="0 0 659.6 156">
  <defs>
    <style>
      .cls-1 {
        fill: #fff;
      }
    </style>
  </defs>
  <g id="Capa_2-2" data-name="Capa 2">
    <g>
      <polygon class="cls-1" points="215.6 0 179.6 0 167.6 0 131.6 0 131.6 12 155.6 12 155.6 24 167.6 24 167.6 96 155.6 96 155.6 84 143.6 84 143.6 72 131.6 72 131.6 48 119.6 48 119.6 36 107.6 36 107.6 24 95.6 24 95.6 12 84 12 84 0 0 0 0 12 22.6 12 22.6 24 35.6 24 35.6 132 23.6 132 23.6 144 0 144 0 156 84 156 84 144 59.6 144 59.6 132 47.6 132 47.6 36 59.6 36 59.6 48 71.6 48 71.6 72 83.6 72 83.6 84 95.6 84 95.6 96 107.6 96 107.6 108 119.6 108 119.6 132 131.6 132 131.6 144 143.6 144 143.6 156 179.6 156 179.6 144 179.6 132 179.6 108 179.6 24 191.6 24 191.6 12 215.6 12 215.6 0"/>
      <polygon class="cls-1" points="563.6 0 563.6 12 539.6 12 539.6 24 527.6 24 527.6 36 515.6 36 515.6 120 527.6 120 527.6 132 539.6 132 539.6 144 563.6 144 563.6 156 623.6 156 623.6 144 647.6 144 647.6 132 659.6 132 659.6 120 659.6 96 647.6 96 647.6 120 635.6 120 623.6 120 623.6 132 611.6 132 611.6 144 587.6 144 587.6 132 575.6 132 575.6 120 563.6 120 563.6 36 575.6 36 575.6 24 587.6 24 587.6 12 623.6 12 623.6 0 563.6 0"/>
      <rect class="cls-1" x="623.6" y="12" width="12" height="12"/>
      <polygon class="cls-1" points="647.6 0 647.6 24 635.6 24 635.6 36 635.6 48 647.6 48 647.6 72 659.6 72 659.6 36 659.6 24 659.6 0 647.6 0"/>
      <path class="cls-1" d="M443.6,0h-168v12h12v12h12v108h-12v12h-12v12h108v-12h-24v-12h-12v-48h96v-12h12V12h-12V0ZM407.6,60v12h-60V12h60v12h12v36h-12Z"/>
      <rect class="cls-1" x="215.6" y="120" width="36" height="36"/>
      <rect class="cls-1" x="467.6" y="120" width="36" height="36"/>
      <path class="cls-1" d="M630.89,79.16c-13.88-.42-25.04-11.57-25.46-25.46l-.04-1.29c-.01-.39-.59-.39-.6,0l-.04,1.29c-.42,13.88-11.57,25.04-25.46,25.46l-1.29.04c-.39.01-.39.59,0,.6l1.29.04c13.88.42,25.04,11.57,25.46,25.46l.04,1.29c.01.39.59.39.6,0l.04-1.29c.42-13.88,11.57-25.04,25.46-25.46l1.29-.04c.39-.01.39-.59,0-.6l-1.29-.04Z"/>
    </g>
  </g>
</svg>